<svg width="116" height="21" viewBox="0 0 116 21" fill="none" xmlns="http://www.w3.org/2000/svg">
<path d="M14.168 16.328V20H0.68V3.2H13.856V6.872H5.384V9.704H12.848V13.256H5.384V16.328H14.168ZM25.4947 19.472C25.1107 19.712 24.6387 19.896 24.0787 20.024C23.5347 20.152 22.9507 20.216 22.3267 20.216C20.6307 20.216 19.3267 19.8 18.4147 18.968C17.5027 18.136 17.0467 16.896 17.0467 15.248V10.88H15.1507V7.472H17.0467V4.088H21.6067V7.472H24.5827V10.88H21.6067V15.2C21.6067 15.664 21.7267 16.032 21.9667 16.304C22.2227 16.56 22.5587 16.688 22.9747 16.688C23.5027 16.688 23.9667 16.552 24.3667 16.28L25.4947 19.472ZM40.1741 13.52C40.1741 13.552 40.1501 13.928 40.1021 14.648H30.6461C30.8381 15.32 31.2061 15.84 31.7501 16.208C32.3101 16.56 33.0061 16.736 33.8381 16.736C34.4621 16.736 34.9981 16.648 35.4461 16.472C35.9101 16.296 36.3741 16.008 36.8381 15.608L39.2381 18.104C37.9741 19.512 36.1261 20.216 33.6941 20.216C32.1741 20.216 30.8381 19.928 29.6861 19.352C28.5341 18.776 27.6381 17.976 26.9981 16.952C26.3741 15.928 26.0621 14.768 26.0621 13.472C26.0621 12.192 26.3661 11.048 26.9741 10.04C27.5981 9.016 28.4541 8.216 29.5421 7.64C30.6301 7.064 31.8541 6.776 33.2141 6.776C34.5101 6.776 35.6861 7.048 36.7421 7.592C37.7981 8.12 38.6301 8.896 39.2381 9.92C39.8621 10.928 40.1741 12.128 40.1741 13.52ZM33.2381 10.016C32.5341 10.016 31.9421 10.216 31.4621 10.616C30.9981 11.016 30.7021 11.56 30.5741 12.248H35.9021C35.7741 11.56 35.4701 11.016 34.9901 10.616C34.5261 10.216 33.9421 10.016 33.2381 10.016ZM46.6205 8.552C47.0845 7.96 47.6845 7.52 48.4205 7.232C49.1725 6.928 50.0285 6.776 50.9885 6.776V10.88C50.5725 10.832 50.2285 10.808 49.9565 10.808C48.9805 10.808 48.2125 11.072 47.6525 11.6C47.1085 12.128 46.8365 12.936 46.8365 14.024V20H42.2765V6.992H46.6205V8.552ZM58.3205 6.776C60.4805 6.776 62.1285 7.272 63.2645 8.264C64.4005 9.24 64.9685 10.744 64.9685 12.776V20H60.7205V18.32C60.0645 19.584 58.7845 20.216 56.8805 20.216C55.8725 20.216 55.0005 20.04 54.2645 19.688C53.5285 19.336 52.9685 18.864 52.5845 18.272C52.2165 17.664 52.0325 16.976 52.0325 16.208C52.0325 14.976 52.5045 14.024 53.4485 13.352C54.3925 12.664 55.8485 12.32 57.8165 12.32H60.4085C60.3285 10.944 59.4085 10.256 57.6485 10.256C57.0245 10.256 56.3925 10.36 55.7525 10.568C55.1125 10.76 54.5685 11.032 54.1205 11.384L52.5845 8.288C53.3045 7.808 54.1765 7.44 55.2005 7.184C56.2405 6.912 57.2805 6.776 58.3205 6.776ZM58.1525 17.336C58.6805 17.336 59.1445 17.208 59.5445 16.952C59.9445 16.696 60.2325 16.32 60.4085 15.824V14.696H58.4405C57.1125 14.696 56.4485 15.136 56.4485 16.016C56.4485 16.416 56.6005 16.736 56.9045 16.976C57.2085 17.216 57.6245 17.336 58.1525 17.336ZM76.8228 19.472C76.4388 19.712 75.9668 19.896 75.4068 20.024C74.8628 20.152 74.2788 20.216 73.6548 20.216C71.9588 20.216 70.6548 19.8 69.7428 18.968C68.8308 18.136 68.3748 16.896 68.3748 15.248V10.88H66.4788V7.472H68.3748V4.088H72.9348V7.472H75.9108V10.88H72.9348V15.2C72.9348 15.664 73.0548 16.032 73.2948 16.304C73.5508 16.56 73.8868 16.688 74.3028 16.688C74.8308 16.688 75.2948 16.552 75.6948 16.28L76.8228 19.472ZM78.5812 6.992H83.1412V20H78.5812V6.992ZM80.8612 5.552C80.0292 5.552 79.3572 5.32 78.8452 4.856C78.3332 4.392 78.0772 3.816 78.0772 3.128C78.0772 2.44 78.3332 1.864 78.8452 1.4C79.3572 0.935999 80.0292 0.704 80.8612 0.704C81.6932 0.704 82.3652 0.927999 82.8772 1.376C83.3892 1.808 83.6452 2.368 83.6452 3.056C83.6452 3.776 83.3892 4.376 82.8772 4.856C82.3652 5.32 81.6932 5.552 80.8612 5.552ZM92.6326 20.216C91.2406 20.216 89.9846 19.928 88.8646 19.352C87.7446 18.776 86.8646 17.976 86.2246 16.952C85.6006 15.928 85.2886 14.768 85.2886 13.472C85.2886 12.192 85.6006 11.04 86.2246 10.016C86.8646 8.992 87.7366 8.2 88.8406 7.64C89.9606 7.064 91.2246 6.776 92.6326 6.776C94.0406 6.776 95.3046 7.064 96.4246 7.64C97.5446 8.2 98.4166 8.992 99.0406 10.016C99.6646 11.024 99.9766 12.176 99.9766 13.472C99.9766 14.768 99.6646 15.928 99.0406 16.952C98.4166 17.976 97.5446 18.776 96.4246 19.352C95.3046 19.928 94.0406 20.216 92.6326 20.216ZM92.6326 16.592C93.4326 16.592 94.0886 16.32 94.6006 15.776C95.1126 15.216 95.3686 14.448 95.3686 13.472C95.3686 12.512 95.1126 11.76 94.6006 11.216C94.0886 10.672 93.4326 10.4 92.6326 10.4C91.8326 10.4 91.1766 10.672 90.6646 11.216C90.1526 11.76 89.8966 12.512 89.8966 13.472C89.8966 14.448 90.1526 15.216 90.6646 15.776C91.1766 16.32 91.8326 16.592 92.6326 16.592ZM110.561 6.776C112.177 6.776 113.473 7.256 114.449 8.216C115.441 9.176 115.937 10.624 115.937 12.56V20H111.377V13.304C111.377 11.528 110.665 10.64 109.241 10.64C108.457 10.64 107.825 10.896 107.345 11.408C106.881 11.92 106.649 12.688 106.649 13.712V20H102.089V6.992H106.433V8.408C106.945 7.88 107.553 7.48 108.257 7.208C108.961 6.92 109.729 6.776 110.561 6.776Z" fill="white"/>
</svg>
